<svg width="39" height="48" viewBox="0 0 39 48" fill="none" xmlns="http://www.w3.org/2000/svg">
<path fill-rule="evenodd" clip-rule="evenodd" d="M12 3C12 1.34062 13.3406 0 15 0H19.5H24C25.6594 0 27 1.34062 27 3C27 4.65938 25.6594 6 24 6H22.5V9.225C26.0156 9.76875 29.2125 11.25 31.8469 13.4062L33.8719 11.3812C35.0438 10.2094 36.9469 10.2094 38.1187 11.3812C39.2906 12.5531 39.2906 14.4562 38.1187 15.6281L35.8594 17.8875C37.8469 20.9344 39 24.5812 39 28.5C39 39.2719 30.2719 48 19.5 48C8.72812 48 0 39.2719 0 28.5C0 18.75 7.15312 10.6687 16.5 9.225V6H15C13.3406 6 12 4.65938 12 3ZM20.3702 26.6728L26.9811 27.6768C27.3783 27.7371 27.5197 28.2462 27.2408 28.5601L13.7824 41.5681C13.5892 41.7701 13.2773 41.5602 13.374 41.2936L18.3099 30.3604L11.699 29.3564C11.3019 29.2961 11.1543 28.7861 11.4384 28.4792L24.8977 15.465C25.0909 15.2631 25.4029 15.473 25.3061 15.7396L20.3702 26.6728Z" fill="url(#paint0_linear_190_745)"/>
<defs>
<linearGradient id="paint0_linear_190_745" x1="4.46875" y1="-6.86695e-07" x2="41.7357" y2="34.7804" gradientUnits="userSpaceOnUse">
<stop stop-color="#FB6514"/>
<stop offset="1" stop-color="#FB6514" stop-opacity="0.4"/>
</linearGradient>
</defs>
</svg>
