<svg width="49" height="48" viewBox="0 0 49 48" fill="none" xmlns="http://www.w3.org/2000/svg">
<path d="M0.185913 26.4288H13.4914C13.9261 34.3687 16.4793 41.7441 20.5953 48C9.7517 46.3148 1.28082 37.4568 0.185913 26.4288ZM0.185913 21.5709C1.28082 10.5431 9.7517 1.68504 20.5953 0C16.4793 6.25578 13.9261 13.6313 13.4914 21.5709H0.185913ZM48.5245 21.5709H35.2189C34.7841 13.6313 32.2311 6.25578 28.115 0C38.9587 1.68504 47.4296 10.5431 48.5245 21.5709ZM48.5245 26.4288C47.4296 37.4568 38.9587 46.3148 28.115 48C32.2311 41.7441 34.7841 34.3687 35.2189 26.4288H48.5245ZM18.3575 26.4288H30.3528C29.936 33.1882 27.7913 39.4801 24.3551 44.8682C20.9189 39.4801 18.7744 33.1882 18.3575 26.4288ZM18.3575 21.5709C18.7744 14.8117 20.9189 8.51992 24.3551 3.13182C27.7913 8.51992 29.936 14.8117 30.3528 21.5709H18.3575Z" fill="url(#paint0_linear_190_808)"/>
<defs>
<linearGradient id="paint0_linear_190_808" x1="5.72471" y1="-6.86695e-07" x2="42.688" y2="42.7574" gradientUnits="userSpaceOnUse">
<stop stop-color="#FB6514"/>
<stop offset="1" stop-color="#FB6514" stop-opacity="0.4"/>
</linearGradient>
</defs>
</svg>
