<svg width="48" height="48" viewBox="0 0 48 48" fill="none" xmlns="http://www.w3.org/2000/svg">
<path d="M48 37.9969V42C48 45.3094 39.9375 48 30 48C20.0625 48 12 45.3094 12 42V37.9969C15.8719 40.725 22.95 42 30 42C37.05 42 44.1281 40.725 48 37.9969ZM18 12C8.0625 12 0 9.30937 0 6C0 2.69062 8.0625 0 18 0C27.9375 0 36 2.69062 36 6C36 9.30937 27.9375 12 18 12ZM9 29.1937C3.62812 28.1531 0 26.2219 0 24V19.9969C2.175 21.5344 5.37187 22.5844 9 23.2312V29.1937ZM9.44062 20.2781C3.81562 19.2656 0 17.2781 0 15V10.9969C3.32812 13.35 9.04688 14.6156 15.0656 14.9156C12.3 16.2563 10.2656 18.0562 9.44062 20.2781Z" fill="url(#paint0_linear_190_736)"/>
<path d="M30.795 33.2727V32.1682C30.795 31.3091 30.9791 30.5148 31.3473 29.7852C31.7223 29.0557 32.2643 28.4693 32.9734 28.0261C33.6825 27.583 34.5484 27.3614 35.5711 27.3614C36.6143 27.3614 37.4905 27.583 38.1995 28.0261C38.9155 28.4625 39.4541 29.0455 39.8155 29.775C40.1836 30.4977 40.3677 31.2955 40.3677 32.1682V33.2727C40.3677 34.1318 40.1836 34.9261 39.8155 35.6557C39.4473 36.3852 38.9052 36.9716 38.1893 37.4148C37.4734 37.858 36.6007 38.0795 35.5711 38.0795C34.5348 38.0795 33.662 37.858 32.953 37.4148C32.2439 36.9716 31.7052 36.3852 31.337 35.6557C30.9757 34.9261 30.795 34.1318 30.795 33.2727ZM34.0575 32.1682V33.2727C34.0575 33.7091 34.1632 34.1284 34.3745 34.5307C34.5927 34.933 34.9916 35.1341 35.5711 35.1341C36.1643 35.1341 36.5632 34.9398 36.7677 34.5511C36.9723 34.1557 37.0745 33.7295 37.0745 33.2727V32.1682C37.0745 31.7114 36.9757 31.2818 36.778 30.8795C36.587 30.4705 36.1848 30.2659 35.5711 30.2659C34.9984 30.2659 34.603 30.4705 34.3848 30.8795C34.1666 31.2818 34.0575 31.7114 34.0575 32.1682ZM19.9336 21.2864V20.1818C19.9336 19.3091 20.1211 18.5114 20.4961 17.7886C20.878 17.0591 21.4234 16.4761 22.1325 16.0398C22.8416 15.5966 23.7007 15.375 24.7098 15.375C25.753 15.375 26.6291 15.5966 27.3382 16.0398C28.0541 16.4761 28.5961 17.0591 28.9643 17.7886C29.3325 18.5114 29.5166 19.3091 29.5166 20.1818V21.2864C29.5166 22.1591 29.3291 22.9568 28.9541 23.6795C28.5859 24.4023 28.0439 24.9784 27.328 25.408C26.612 25.8375 25.7393 26.0523 24.7098 26.0523C23.6802 26.0523 22.8075 25.8341 22.0916 25.3977C21.3825 24.9614 20.8439 24.3818 20.4757 23.6591C20.1143 22.9364 19.9336 22.1455 19.9336 21.2864ZM23.2268 20.1818V21.2864C23.2268 21.7432 23.3325 22.1693 23.5439 22.5648C23.762 22.9534 24.1507 23.1477 24.7098 23.1477C25.3098 23.1477 25.7086 22.9534 25.9064 22.5648C26.1109 22.1693 26.2132 21.7432 26.2132 21.2864V20.1818C26.2132 19.725 26.1177 19.2955 25.9268 18.8932C25.7359 18.4841 25.3302 18.2795 24.7098 18.2795C24.137 18.2795 23.745 18.4875 23.5336 18.9034C23.3291 19.3193 23.2268 19.7455 23.2268 20.1818ZM21.478 37.2L35.878 16.2545H38.67L24.27 37.2H21.478Z" fill="url(#paint1_linear_190_736)"/>
<defs>
<linearGradient id="paint0_linear_190_736" x1="5.5" y1="-6.86695e-07" x2="42.5" y2="42.5" gradientUnits="userSpaceOnUse">
<stop stop-color="#FB6514"/>
<stop offset="1" stop-color="#FB6514" stop-opacity="0.4"/>
</linearGradient>
<linearGradient id="paint1_linear_190_736" x1="5.5" y1="-6.86695e-07" x2="42.5" y2="42.5" gradientUnits="userSpaceOnUse">
<stop stop-color="#FB6514"/>
<stop offset="1" stop-color="#FB6514" stop-opacity="0.4"/>
</linearGradient>
</defs>
</svg>
