<svg width="16" height="16" viewBox="0 0 16 16" fill="none" xmlns="http://www.w3.org/2000/svg">
<path fillRule="evenodd" clipRule="evenodd" d="M16 4C16 1.79086 14.2091 0 12 0H4C1.79086 0 0 1.79086 0 4V12C0 14.2091 1.79086 16 4 16H12C14.2091 16 16 14.2091 16 12V4ZM10.8463 5.03644C11.1344 5.29167 11.5673 5.35069 11.8732 5.11715V5.11715C11.9239 5.07811 11.999 5.11334 12 5.1762L11.9922 6.89906C11.9922 6.94763 11.9444 6.98382 11.8956 6.97239L10.1827 6.56287C10.1684 6.55947 10.1554 6.55221 10.1452 6.54192C10.1349 6.53163 10.1279 6.51873 10.1248 6.5047C10.1218 6.49067 10.1228 6.47609 10.1279 6.46262C10.1329 6.44916 10.1418 6.43736 10.1534 6.42858L10.4194 6.22584C10.5956 6.09156 10.628 5.83666 10.4695 5.68192V5.68192C10.1642 5.38222 9.80205 5.14348 9.40324 4.97906C8.99061 4.80858 8.55164 4.72192 8.09804 4.72192C7.64541 4.72192 7.20546 4.80858 6.79283 4.97906C6.39386 5.14477 6.03488 5.38096 5.72662 5.68192C5.41837 5.98287 5.17645 6.33334 5.00769 6.72382C4.83307 7.12763 4.7443 7.5562 4.7443 7.99906C4.7443 8.44192 4.83307 8.87049 5.00769 9.2743C5.17584 9.66384 5.42003 10.0177 5.72662 10.3162C6.03187 10.6159 6.39403 10.8546 6.79283 11.0191C7.20546 11.1895 7.64444 11.2762 8.09804 11.2762C8.55067 11.2762 8.99061 11.1895 9.40324 11.0191C9.80166 10.8539 10.1637 10.6153 10.4695 10.3162C10.7777 10.0152 11.0196 9.66477 11.1884 9.2743C11.2089 9.22763 11.2284 9.18001 11.2459 9.13239C11.253 9.11372 11.2673 9.09848 11.2857 9.08994C11.3041 9.08139 11.3252 9.08022 11.3445 9.08668L11.8976 9.27239C11.9385 9.28572 11.96 9.33049 11.9454 9.37049C11.3718 10.9048 9.86465 12 8.09609 12C5.83197 12 3.99708 10.2067 4 7.99525C4.00293 5.78572 5.83393 4.00001 8.09609 4.00001C9.1544 4.00001 10.1191 4.39218 10.8463 5.03644Z" fill="black"/>
</svg>
