<svg width="57" height="48" viewBox="0 0 57 48" fill="none" xmlns="http://www.w3.org/2000/svg">
<path d="M31.6005 3.51219C31.6005 4.55239 31.1484 5.48696 30.4298 6.13007V10.5366H42.1371C46.0167 10.5366 49.1615 13.6815 49.1615 17.561V40.9756C49.1615 44.8552 46.0167 48 42.1371 48H14.0396C10.1601 48 7.01517 44.8552 7.01517 40.9756V17.561C7.01517 13.6815 10.1601 10.5366 14.0396 10.5366H25.7469V6.13007C25.0283 5.48696 24.5761 4.55239 24.5761 3.51219C24.5761 1.57246 26.1487 0 28.0883 0C30.028 0 31.6005 1.57246 31.6005 3.51219ZM-0.00921631 22.2439H4.67371V36.2927H-0.00921631V22.2439ZM56.1859 22.2439H51.503V36.2927H56.1859V22.2439ZM21.064 32.7805C23.0037 32.7805 24.5761 31.208 24.5761 29.2683C24.5761 27.3286 23.0037 25.7561 21.064 25.7561C19.1242 25.7561 17.5518 27.3286 17.5518 29.2683C17.5518 31.208 19.1242 32.7805 21.064 32.7805ZM38.6249 29.2683C38.6249 27.3286 37.0524 25.7561 35.1127 25.7561C33.1731 25.7561 31.6005 27.3286 31.6005 29.2683C31.6005 31.208 33.1731 32.7805 35.1127 32.7805C37.0524 32.7805 38.6249 31.208 38.6249 29.2683Z" fill="url(#paint0_linear_190_805)"/>
<defs>
<linearGradient id="paint0_linear_190_805" x1="6.42981" y1="-6.86695e-07" x2="42.2047" y2="48.1086" gradientUnits="userSpaceOnUse">
<stop stop-color="#FB6514"/>
<stop offset="1" stop-color="#FB6514" stop-opacity="0.4"/>
</linearGradient>
</defs>
</svg>
