<svg width="39" height="48" viewBox="0 0 39 48" fill="none" xmlns="http://www.w3.org/2000/svg">
<path fill-rule="evenodd" clip-rule="evenodd" d="M19.4824 0L0 8.72727V21.8182C0 33.9273 8.31247 45.2509 19.4824 48C30.6522 45.2509 38.9647 33.9273 38.9647 21.8182V8.72727L19.4824 0ZM19.7783 10.9502C19.7783 10.8027 19.9608 10.7438 20.0404 10.8657L32.7106 30.267C32.7996 30.4033 32.6434 30.5679 32.5121 30.4761L25.0409 25.2517C25.0258 25.2411 25.0127 25.2276 25.0024 25.2119L19.8034 17.2845C19.787 17.2596 19.7783 17.23 19.7783 17.1998V10.9502ZM25.12 26.0568C25.0612 26.0157 24.9826 26.0254 24.9347 26.0797L19.8164 31.8659C19.7919 31.8937 19.7783 31.93 19.7783 31.9677V37.4497C19.7783 37.5862 19.9385 37.6517 20.0272 37.5516L25.2067 31.7049C25.2338 31.6743 25.272 31.6568 25.312 31.6568H32.6562C32.7981 31.6568 32.854 31.4647 32.7361 31.3822L25.12 26.0568ZM19.0217 10.9502C19.0217 10.8027 18.8392 10.7438 18.7596 10.8657L6.08942 30.267C6.00043 30.4033 6.15663 30.5679 6.28786 30.4761L13.7591 25.2517C13.7742 25.2411 13.7873 25.2276 13.7976 25.2119L18.9966 17.2845C19.013 17.2596 19.0217 17.23 19.0217 17.1998V10.9502ZM13.68 26.0568C13.7388 26.0157 13.8174 26.0254 13.8653 26.0797L18.9836 31.8659C19.0081 31.8937 19.0217 31.93 19.0217 31.9677V37.4497C19.0217 37.5862 18.8615 37.6517 18.7728 37.5516L13.5933 31.7049C13.5662 31.6743 13.528 31.6568 13.488 31.6568H6.14382C6.00192 31.6568 5.94605 31.4647 6.06397 31.3822L13.68 26.0568Z" fill="url(#paint0_linear_190_775)"/>
<defs>
<linearGradient id="paint0_linear_190_775" x1="4.46471" y1="-6.86695e-07" x2="41.7294" y2="34.7468" gradientUnits="userSpaceOnUse">
<stop stop-color="#FB6514"/>
<stop offset="1" stop-color="#FB6514" stop-opacity="0.4"/>
</linearGradient>
</defs>
</svg>
