<svg width="50" height="48" viewBox="0 0 50 48" fill="none" xmlns="http://www.w3.org/2000/svg">
<path fillRule="evenodd" clipRule="evenodd" d="M16.212 14.0807L22.3137 1.66973C23.4163 -0.570616 26.5839 -0.542494 27.6771 1.66973L33.7788 14.0807L47.4305 16.0773C49.8786 16.4335 50.8598 19.4613 49.0844 21.1954L39.2077 30.8505L41.5437 44.4894C41.9642 46.9548 39.3759 48.792 37.2081 47.6484L24.9954 41.2086L12.7827 47.6484C10.6149 48.8014 8.02659 46.9548 8.44707 44.4894L10.7831 30.8505L0.906418 21.1954C-0.868953 19.4613 0.112173 16.4335 2.56032 16.0773L16.212 14.0807ZM18.4588 30V19.8182H16.1769L13.6662 21.3793V23.5071L15.9432 22.1151H16.0029V30H18.4588ZM25.1643 24.755L27.3965 24.6953C27.3335 23.9396 27.0037 23.3464 26.4072 22.9155C25.8106 22.4813 24.9952 22.2642 23.9611 22.2642C23.2717 22.2642 22.6735 22.3603 22.1664 22.5526C21.6593 22.7448 21.2682 23.0232 20.9931 23.3878C20.718 23.7491 20.5821 24.1849 20.5854 24.6953C20.5821 25.2787 20.7677 25.7593 21.1422 26.1371C21.5168 26.5116 22.0868 26.7685 22.8525 26.9077L24.1849 27.1612C24.503 27.2209 24.7367 27.3038 24.8858 27.4098C25.035 27.5126 25.1112 27.6501 25.1145 27.8225C25.1112 28.0147 25.0118 28.1688 24.8162 28.2848C24.6207 28.4008 24.3671 28.4588 24.0556 28.4588C23.7109 28.4588 23.4275 28.3859 23.2055 28.2401C22.9834 28.0942 22.8458 27.8821 22.7928 27.6037L20.3915 27.6634C20.481 28.4191 20.839 29.0223 21.4654 29.473C22.0951 29.9205 22.9552 30.1442 24.0456 30.1442C24.7284 30.1442 25.3349 30.0381 25.8653 29.826C26.3956 29.6106 26.8132 29.309 27.1181 28.9212C27.4263 28.5334 27.5821 28.0777 27.5854 27.554C27.5821 26.9972 27.3932 26.5497 27.0187 26.2117C26.6474 25.8736 26.0807 25.6316 25.3184 25.4858L23.8468 25.2074C23.5253 25.1411 23.3016 25.0533 23.1756 24.9439C23.053 24.8345 22.9933 24.7053 22.9966 24.5561C22.9933 24.3639 23.0894 24.2114 23.285 24.0987C23.4839 23.9861 23.7242 23.9297 24.0059 23.9297C24.2213 23.9297 24.4102 23.9662 24.5726 24.0391C24.7384 24.1087 24.8726 24.2065 24.9753 24.3324C25.0781 24.455 25.1411 24.5959 25.1643 24.755ZM33.0927 24.1534V22.3637H31.7156V20.5341H29.2845V22.3637H28.2752V24.1534H29.2845V27.8672C29.2778 28.3843 29.3806 28.8135 29.5927 29.1548C29.8081 29.4962 30.118 29.7481 30.5224 29.9105C30.9301 30.0696 31.4189 30.1359 31.989 30.1094C32.2807 30.0961 32.5309 30.0646 32.7397 30.0149C32.9518 29.9652 33.1159 29.9238 33.2319 29.8906L32.864 28.1357C32.811 28.1489 32.7314 28.1655 32.6254 28.1854C32.5226 28.202 32.4249 28.2102 32.3321 28.2102C32.2028 28.2102 32.0918 28.192 31.999 28.1556C31.9061 28.1158 31.8349 28.0512 31.7852 27.9617C31.7388 27.8689 31.7156 27.7479 31.7156 27.5987V24.1534H33.0927Z" fill="url(#paint0_linear_190_811)"/>
<defs>
<linearGradient id="paint0_linear_190_811" x1="5.72811" y1="-6.86695e-07" x2="42.492" y2="43.9802" gradientUnits="userSpaceOnUse">
<stop stop-color="#FB6514"/>
<stop offset="1" stop-color="#FB6514" stop-opacity="0.4"/>
</linearGradient>
</defs>
</svg>
